<svg width="485" height="127" viewBox="0 0 485 127" fill="none" xmlns="http://www.w3.org/2000/svg">
<path fill-rule="evenodd" clip-rule="evenodd" d="M280.182 34.6521C301.888 34.6521 318.272 50.5293 318.272 71.4752C318.272 92.4211 301.888 108.3 280.182 108.3C258.475 108.3 242.092 92.4211 242.092 71.4752C242.092 50.5293 258.475 34.6521 280.182 34.6521ZM446.23 34.9897C469.708 34.9897 480.437 53.2324 480.437 73.1654C480.437 74.4743 480.437 75.7415 480.308 77.0503C480.23 77.8417 479.853 78.3362 479.111 78.395L478.957 78.4008H431.197C433.139 87.0585 438.797 92.2522 448.426 92.2522C454.252 92.2522 459.024 90.7746 464.727 85.9185C465.279 85.4458 465.868 85.3779 466.457 85.8167L466.584 85.9185L475.875 94.2801C476.508 94.8283 476.636 95.5473 476.046 96.2226C469.076 104.203 459.996 108.3 448.172 108.3C426.889 108.3 411.434 93.3506 411.434 71.5606C411.434 51.5443 425.705 34.9897 446.23 34.9897ZM368.359 18.2663C369.203 18.2663 369.709 18.7728 369.709 19.6169V36.3402H384.911C385.755 36.3402 386.262 36.8467 386.262 37.6929V51.8819C386.262 52.726 385.755 53.2324 384.911 53.2324H369.709V83.8906C369.709 88.5362 371.779 90.7329 375.874 90.7329C378.915 90.7329 381.406 90.4786 384.405 88.9593C385.334 88.4945 386.01 88.7904 386.01 89.72V102.979C386.01 103.655 385.755 104.247 385.08 104.668C381.406 106.95 376.55 108.3 370.216 108.3C359.278 108.3 351.467 104.372 349.987 91.8729C349.829 90.5267 349.784 88.7353 349.779 86.394L349.779 53.2324H342.682C341.838 53.2324 341.331 52.726 341.331 51.8819V37.6929C341.331 36.8467 341.838 36.3402 342.682 36.3402H349.779V19.6169C349.779 18.7728 350.285 18.2663 351.129 18.2663H368.359ZM192.599 34.6521C205.308 34.6521 213.501 41.7883 215.783 53.7389C216.204 55.9356 216.415 58.5533 216.415 61.8901V105.26C216.415 106.104 215.908 106.612 215.064 106.612H197.834C196.99 106.612 196.484 106.104 196.484 105.26V67.0838C196.484 57.7092 192.005 52.726 184.406 52.726C176.803 52.726 171.988 57.6238 171.988 67.0838V105.26C171.988 106.104 171.484 106.612 170.638 106.612H153.408C152.564 106.612 152.056 106.104 152.056 105.26V37.6929C152.056 36.8467 152.564 36.3402 153.408 36.3402H170.638C171.484 36.3402 171.988 36.8467 171.988 37.6929V45.7148C178.618 36.8467 186.346 34.6521 192.599 34.6521ZM280.182 51.8798C268.865 51.8798 261.77 61.0022 261.77 71.4752C261.77 81.9481 268.865 91.0705 280.182 91.0705C291.501 91.0705 298.593 81.9481 298.593 71.4752C298.593 61.0022 291.501 51.8798 280.182 51.8798ZM446.23 50.9524C438.288 50.9524 433.131 56.3553 430.877 65.5516L430.773 65.9855H461.052C459.658 57.2028 454.846 50.9524 446.23 50.9524Z" fill="black"/>
<path fill-rule="evenodd" clip-rule="evenodd" d="M47.4957 55.4279H33.5589C31.9124 55.4279 31.3642 55.3425 30.5181 55.0903C28.2401 54.415 26.4644 52.1349 26.4644 49.4317C26.4644 46.7286 28.2401 44.4485 30.5181 43.7732C31.3642 43.519 31.9124 43.4356 33.5589 43.4356H42.5958V34.3986C42.5958 32.7501 42.6813 32.2019 42.9355 31.3578C43.6108 29.034 45.8909 27.302 48.592 27.302C51.2951 27.302 53.5773 29.0757 54.2526 31.3578C54.5048 32.2019 54.5902 32.7501 54.5902 34.3986V48.3334C54.5902 49.1775 54.5902 50.0236 54.4214 50.7823C53.9566 52.8956 52.0559 54.7943 49.9446 55.2591C49.186 55.4279 48.3398 55.4279 47.4957 55.4279ZM92.2595 106.611H17.5129V40.7741C17.5129 39.93 17.8088 39.2131 18.3987 38.6212L37.7835 19.2363C38.3733 18.6465 39.0923 18.3505 39.9364 18.3505H92.2595V106.611ZM6.19583 29.7113C4.20962 31.6955 2.90284 34.1881 2.64648 36.9747C2.6048 37.4394 2.56314 38.1147 2.56314 38.79V113.241C2.56314 114.212 2.6048 114.718 2.64648 115.1C2.9862 118.266 5.85611 121.138 9.02405 121.475C9.40545 121.517 9.9119 121.561 10.8831 121.561H98.8892C99.8604 121.561 100.367 121.517 100.748 121.475C103.914 121.138 106.786 118.266 107.124 115.1C107.168 114.718 107.207 114.212 107.207 113.241V11.7208C107.207 10.7496 107.168 10.2431 107.124 9.86172C106.786 6.69587 103.914 3.82389 100.748 3.48625C100.367 3.44457 99.8604 3.4008 98.8892 3.4008H37.9523C37.277 3.4008 36.5997 3.44457 36.137 3.48625C33.3484 3.73844 30.8578 5.0473 28.8716 7.03351L6.19583 29.7113Z" fill="black"/>
</svg>
